<svg xmlns="http://www.w3.org/2000/svg" viewBox="0 0 512 512">
  <defs>
    <linearGradient id="bg" x1="64" y1="36" x2="448" y2="480" gradientUnits="userSpaceOnUse">
      <stop stop-color="#6f3d9c"/>
      <stop offset="1" stop-color="#291843"/>
    </linearGradient>
    <linearGradient id="gem" x1="160" y1="124" x2="354" y2="382" gradientUnits="userSpaceOnUse">
      <stop stop-color="#fff8ff"/>
      <stop offset=".25" stop-color="#ff87cf"/>
      <stop offset=".56" stop-color="#b95cff"/>
      <stop offset=".82" stop-color="#63d8ff"/>
      <stop offset="1" stop-color="#2474cc"/>
    </linearGradient>
    <filter id="glow" x="-50%" y="-50%" width="200%" height="200%">
      <feGaussianBlur stdDeviation="13" result="b"/>
      <feMerge><feMergeNode in="b"/><feMergeNode in="SourceGraphic"/></feMerge>
    </filter>
  </defs>
  <rect width="512" height="512" rx="106" fill="url(#bg)"/>
  <circle cx="256" cy="254" r="178" fill="#c870db" opacity=".13"/>
  <path d="M154 190 205 126h102l51 64-102 192z" fill="url(#gem)" stroke="#fff" stroke-opacity=".72" stroke-width="9" stroke-linejoin="round" filter="url(#glow)"/>
  <path d="m154 190 102 42 102-42M205 126l51 106 51-106M154 190h204M256 232v150" fill="none" stroke="#fff" stroke-opacity=".72" stroke-width="8" stroke-linejoin="round"/>
  <path d="M111 114c29-23 62-32 94-31" fill="none" stroke="#ffd86f" stroke-width="17" stroke-linecap="round"/>
  <path d="M394 331c-9 29-26 55-50 75" fill="none" stroke="#78e8d2" stroke-width="15" stroke-linecap="round"/>
  <circle cx="385" cy="119" r="13" fill="#fff0a8"/>
  <circle cx="105" cy="356" r="10" fill="#ff8ccf"/>
</svg>
